<svg xmlns="http://www.w3.org/2000/svg" viewBox="0 0 419.74 399.59"><defs><style>.cls-1{fill:#009fe3;}.cls-2{fill:#29235c;}</style></defs><g id="Layer_2" data-name="Layer 2"><g id="Layer_1-2" data-name="Layer 1"><circle class="cls-1" cx="209.87" cy="199.79" r="187.56"/><path class="cls-2" d="M191,0q23.43,0,39.58,6.92T255.09,27q8.34,13.14,8,32.67T253.14,104q-9.24,24.51-17.93,45.27T218,190.3q-9.59,23.43-19.17,37.45t-20.95,21.48a62.83,62.83,0,0,1-25.21,9.59A215.08,215.08,0,0,1,120.35,261H0L104,0Zm-8.88,76c1.65-4.26,1.6-7.93-.18-11s-4.67-4.61-8.7-4.61h-14.2L100.12,207.69h14.2c4,0,8.16-1.47,12.43-4.44a23.18,23.18,0,0,0,8.87-11.18Z"/><path class="cls-2" d="M335.62,130.47q25.58,0,44,6.89t28.58,19.4q10.11,12.54,11.36,30.4T412,227h-63.2a20.28,20.28,0,0,1-11.18-2.84c-3-1.89-3.85-5.32-2.67-10.29.24-.95.48-1.78.71-2.49s.48-1.54.71-2.48a5.2,5.2,0,0,0,1.07-3.2c1.42-5.2,1.89-9.53,1.42-13s-3.08-5.15-7.81-5.15q-8.88,0-14.2,5.34t-10.3,17.78q-2.85,7.47,2.84,13.87a107.61,107.61,0,0,0,15.27,13.69q9.58,7.29,20.41,16a85.45,85.45,0,0,1,18.46,20.62,63.6,63.6,0,0,1,9.41,27.56q1.77,15.64-6.74,36.63-6.75,17.07-15.62,28.63a70.52,70.52,0,0,1-21.48,18.67,92.88,92.88,0,0,1-29.29,10.13,221.21,221.21,0,0,1-39.06,3q-25.56,0-44-6.75t-28.58-19.35Q178,360.89,176.75,343t7.63-40.3h62.84q7.82,0,12.43,4.09t0,14.37a9,9,0,0,0-.89,2.49,11,11,0,0,0-.18,1.77q-1.77,7.11-.88,12.08t7.63,5q8.87,0,14.2-5.33t10.3-17.75q2.84-7.1-2.84-13.67a101.41,101.41,0,0,0-15.27-13.85q-9.59-7.26-20.41-16.15a89.65,89.65,0,0,1-18.47-20.59q-7.64-11.72-9.4-27.52t6.74-36.74q6.73-17,15.62-28.58a70.69,70.69,0,0,1,21.48-18.64,93.2,93.2,0,0,1,29.29-10.12A222,222,0,0,1,335.62,130.47Z"/></g></g></svg>